<svg width="130" height="130" viewBox="0 0 100 99" fill="none" xmlns="http://www.w3.org/2000/svg">
<g clip-path="url(#clip0_1_499)">
<path d="M50 0C22.3745 0 0 22.3729 0 49.9964C0 73.4926 16.1234 92.9934 37.8766 98.4909C37.6255 97.8654 37.5021 96.9888 37.5021 96.1166V87.615H31.2511C27.8766 87.615 24.7489 86.1173 23.3745 83.3643C21.7489 80.3645 21.4979 75.7393 17.3745 72.8629C16.1234 71.863 17.1234 70.863 18.4979 70.9864C21.1234 71.7353 23.2468 73.4884 25.2468 76.1095C27.2468 78.7348 28.1234 79.3603 31.8723 79.3603C33.6213 79.3603 36.3702 79.2369 38.8723 78.8582C40.2468 75.3563 42.6213 72.2332 45.4979 70.7354C28.7489 68.7355 20.7489 60.4851 20.7489 49.2348C20.7489 44.3585 22.8723 39.7333 26.3745 35.7336C25.2511 31.8573 23.7489 23.8579 26.8766 20.7347C34.3787 20.7347 38.8766 25.6109 40 26.8577C43.7489 25.6067 47.8766 24.8578 52.1234 24.8578C56.4979 24.8578 60.4979 25.6067 64.2468 26.8577C65.3702 25.6067 69.8723 20.7347 77.3702 20.7347C80.3702 23.7345 78.9957 31.8573 77.7447 35.7336C81.2468 39.6099 83.2468 44.3585 83.2468 49.2348C83.2468 60.4851 75.3702 68.7355 58.7489 70.4843C63.3745 72.8586 66.6255 79.6071 66.6255 84.6067V95.9932C66.6255 96.3676 66.5021 96.742 66.5021 97.1165C86 90.368 100 71.8715 100 49.9964C100 22.3729 77.6255 0 50 0Z" fill="black"/>
</g>
<defs>
<clipPath id="clip0_1_499">
<rect width="100" height="98.4951" fill="white"/>
</clipPath>
</defs>
</svg>
