<svg width="167" height="25" viewBox="0 0 167 25" fill="none" xmlns="http://www.w3.org/2000/svg">
<path d="M12.0893 2.87566C12.3968 1.97165 13.6754 1.97165 13.9828 2.87566L15.7323 8.01948C15.8701 8.42486 16.2508 8.69748 16.679 8.69748H22.2397C23.2194 8.69748 23.6147 9.96033 22.8099 10.519L18.391 13.5861C18.0244 13.8406 17.8708 14.3072 18.0144 14.7296L19.7207 19.7463C20.0313 20.6597 18.9962 21.4399 18.2037 20.8898L13.6063 17.6988C13.2634 17.4608 12.8088 17.4608 12.4659 17.6988L7.86847 20.8898C7.07595 21.4399 6.04089 20.6597 6.35152 19.7463L8.05773 14.7296C8.20142 14.3072 8.04779 13.8406 7.68119 13.5861L3.2623 10.519C2.45743 9.96033 2.85275 8.69748 3.8325 8.69748H9.39316C9.82135 8.69748 10.202 8.42487 10.3399 8.01948L12.0893 2.87566Z" fill="#120D0E"/>
<path d="M47.1863 2.87566C47.4938 1.97165 48.7724 1.97165 49.0798 2.87566L50.8293 8.01948C50.9671 8.42486 51.3478 8.69748 51.776 8.69748H57.3367C58.3164 8.69748 58.7117 9.96033 57.9069 10.519L53.488 13.5861C53.1214 13.8406 52.9677 14.3072 53.1114 14.7296L54.8176 19.7463C55.1283 20.6597 54.0932 21.4399 53.3007 20.8898L48.7033 17.6988C48.3604 17.4608 47.9058 17.4608 47.5629 17.6988L42.9655 20.8898C42.1729 21.4399 41.1379 20.6597 41.4485 19.7463L43.1547 14.7296C43.2984 14.3072 43.1448 13.8406 42.7782 13.5861L38.3593 10.519C37.5544 9.96033 37.9497 8.69748 38.9295 8.69748H44.4901C44.9183 8.69748 45.299 8.42487 45.4369 8.01948L47.1863 2.87566Z" fill="#120D0E"/>
<path d="M82.2835 2.87566C82.591 1.97165 83.8695 1.97165 84.177 2.87566L85.9264 8.01948C86.0643 8.42486 86.445 8.69748 86.8732 8.69748H92.4338C93.4136 8.69748 93.8089 9.96033 93.004 10.519L88.5851 13.5861C88.2185 13.8406 88.0649 14.3072 88.2086 14.7296L89.9148 19.7463C90.2254 20.6597 89.1904 21.4399 88.3979 20.8898L83.8004 17.6988C83.4576 17.4608 83.0029 17.4608 82.66 17.6988L78.0626 20.8898C77.2701 21.4399 76.235 20.6597 76.5457 19.7463L78.2519 14.7296C78.3956 14.3072 78.2419 13.8406 77.8753 13.5861L73.4564 10.519C72.6516 9.96033 73.0469 8.69748 74.0267 8.69748H79.5873C80.0155 8.69748 80.3962 8.42487 80.534 8.01948L82.2835 2.87566Z" fill="#BEBEBE"/>
<path d="M117.381 2.87566C117.688 1.97165 118.967 1.97165 119.274 2.87566L121.024 8.01948C121.161 8.42486 121.542 8.69748 121.97 8.69748H127.531C128.511 8.69748 128.906 9.96033 128.101 10.519L123.682 13.5861C123.316 13.8406 123.162 14.3072 123.306 14.7296L125.012 19.7463C125.323 20.6597 124.288 21.4399 123.495 20.8898L118.898 17.6988C118.555 17.4608 118.1 17.4608 117.757 17.6988L113.16 20.8898C112.367 21.4399 111.332 20.6597 111.643 19.7463L113.349 14.7296C113.493 14.3072 113.339 13.8406 112.972 13.5861L108.554 10.519C107.749 9.96033 108.144 8.69748 109.124 8.69748H114.684C115.113 8.69748 115.493 8.42487 115.631 8.01948L117.381 2.87566Z" fill="#BEBEBE"/>
<path d="M152.478 2.87566C152.785 1.97165 154.064 1.97165 154.371 2.87566L156.121 8.01948C156.259 8.42486 156.639 8.69748 157.067 8.69748H162.628C163.608 8.69748 164.003 9.96033 163.198 10.519L158.779 13.5861C158.413 13.8406 158.259 14.3072 158.403 14.7296L160.109 19.7463C160.42 20.6597 159.385 21.4399 158.592 20.8898L153.995 17.6988C153.652 17.4608 153.197 17.4608 152.854 17.6988L148.257 20.8898C147.464 21.4399 146.429 20.6597 146.74 19.7463L148.446 14.7296C148.59 14.3072 148.436 13.8406 148.07 13.5861L143.651 10.519C142.846 9.96033 143.241 8.69748 144.221 8.69748H149.782C150.21 8.69748 150.59 8.42487 150.728 8.01948L152.478 2.87566Z" fill="#BEBEBE"/>
</svg>
