<svg width="182" height="182" viewBox="0 0 182 182" fill="none" xmlns="http://www.w3.org/2000/svg">
<path d="M91 182C141.258 182 182 141.258 182 91C182 40.7421 141.258 0 91 0C40.7421 0 0 40.7421 0 91C0 141.258 40.7421 182 91 182Z" fill="#F0F0F0"/>
<path d="M18.8114 35.5972C11.6633 44.8973 6.27332 55.6165 3.13489 67.2613H50.4755L18.8114 35.5972Z" fill="#0052B4"/>
<path d="M178.865 67.2614C175.727 55.6169 170.336 44.8978 163.189 35.5977L131.525 67.2614H178.865Z" fill="#0052B4"/>
<path d="M3.13489 114.74C6.27368 126.384 11.6636 137.103 18.8114 146.403L50.4744 114.74H3.13489Z" fill="#0052B4"/>
<path d="M146.403 18.8117C137.102 11.6635 126.384 6.27356 114.739 3.13477V50.475L146.403 18.8117Z" fill="#0052B4"/>
<path d="M35.5974 163.188C44.8975 170.336 55.6167 175.726 67.2611 178.865V131.525L35.5974 163.188Z" fill="#0052B4"/>
<path d="M67.2608 3.13477C55.6163 6.27355 44.8972 11.6635 35.5974 18.8113L67.2608 50.4747V3.13477Z" fill="#0052B4"/>
<path d="M114.739 178.865C126.384 175.726 137.103 170.336 146.403 163.189L114.739 131.525V178.865Z" fill="#0052B4"/>
<path d="M131.525 114.74L163.189 146.403C170.336 137.103 175.727 126.384 178.865 114.74H131.525Z" fill="#0052B4"/>
<path d="M181.23 79.1305H102.87H102.87V0.770301C98.9842 0.264469 95.0228 0 91 0C86.9764 0 83.0158 0.264469 79.1305 0.770301V79.1298V79.1302H0.770301C0.264469 83.0158 0 86.9772 0 91C0 95.0236 0.264469 98.9842 0.770301 102.869H79.1298H79.1302V181.23C83.0158 181.736 86.9764 182 91 182C95.0228 182 98.9842 181.736 102.869 181.23V102.87V102.87H181.23C181.736 98.9842 182 95.0236 182 91C182 86.9772 181.736 83.0158 181.23 79.1305Z" fill="#D80027"/>
<path d="M114.739 114.74L155.347 155.347C157.214 153.48 158.996 151.528 160.696 149.505L125.93 114.739H114.739V114.74Z" fill="#D80027"/>
<path d="M67.2607 114.74H67.26L26.6531 155.347C28.52 157.214 30.4719 158.996 32.4952 160.696L67.2607 125.93V114.74Z" fill="#D80027"/>
<path d="M67.2607 67.2615V67.2608L26.6534 26.6531C24.7858 28.52 23.0042 30.4719 21.3043 32.4952L56.0702 67.2611H67.2607V67.2615Z" fill="#D80027"/>
<path d="M114.739 67.2615L155.347 26.6534C153.48 24.7858 151.528 23.0042 149.505 21.3047L114.739 56.0706V67.2615Z" fill="#D80027"/>
</svg>
