<svg width="150" height="150" viewBox="0 0 100 80" fill="none" xmlns="http://www.w3.org/2000/svg">
<path d="M0 0.416666H79.1666V78.7499H0V0.416666Z" fill="white"/>
<path d="M79.9999 79.1666H0V0H79.9999V79.1666ZM1.5025 77.6707H78.4966V1.49583H1.5025V77.6707Z" fill="#24292E"/>
<path d="M53.5784 61.7283C55.1642 64.3182 57.2276 66.2216 60.8776 66.2216C63.9434 66.2216 65.9017 64.6891 65.9017 62.5724C65.9017 60.0358 63.8901 59.1366 60.5151 57.6608L58.6659 56.8674C53.3267 54.5933 49.7801 51.7433 49.7801 45.7191C49.7801 40.17 54.0076 35.9458 60.6159 35.9458C65.3201 35.9458 68.7025 37.5833 71.1392 41.8699L65.3776 45.5691C64.1092 43.2941 62.7409 42.3983 60.6159 42.3983C58.4484 42.3983 57.0751 43.7733 57.0751 45.5691C57.0751 47.7883 58.4501 48.6874 61.6242 50.0624L63.4742 50.8549C69.7609 53.5508 73.31 56.2991 73.31 62.4783C73.31 69.1391 68.0776 72.7891 61.0492 72.7891C54.1776 72.7891 49.7384 69.5149 47.5659 65.2232C47.5659 65.2216 53.5784 61.7283 53.5784 61.7283ZM80.2692 61.7283C81.855 64.3182 83.9184 66.2216 87.5684 66.2216C90.6342 66.2216 92.5925 64.6891 92.5925 62.5724C92.5925 60.0358 90.5809 59.1366 87.2059 57.6608L85.3567 56.8674C80.0175 54.5933 76.4709 51.7433 76.4709 45.7191C76.4709 40.17 80.6984 35.9458 87.3067 35.9458C92.0109 35.9458 95.3934 37.5833 97.83 41.8699L92.0684 45.5691C90.8 43.2941 89.4317 42.3983 87.3067 42.3983C85.1392 42.3983 83.7659 43.7733 83.7659 45.5691C83.7659 47.7883 85.1409 48.6874 88.315 50.0624L90.165 50.8549C96.4508 53.5499 100 56.2983 100 62.4774C100 69.1382 94.7675 72.7882 87.7392 72.7882C80.8675 72.7882 76.4284 69.5141 74.2559 65.2224L80.2692 61.7283ZM27.4418 62.3699C28.6043 64.4324 29.6618 66.1758 32.2034 66.1758C34.6343 66.1758 36.1676 65.2249 36.1676 61.5266V36.3675H43.5659V61.6258C43.5659 69.2866 39.0743 72.7741 32.5176 72.7741C26.5934 72.7741 23.1626 69.7082 21.4176 66.0158L27.4418 62.3699C27.4418 62.3699 27.4418 62.3691 27.4418 62.3699Z" fill="#24292E"/>
</svg>
