<svg width="182" height="182" viewBox="0 0 182 182" fill="none" xmlns="http://www.w3.org/2000/svg">
<path d="M91 182C141.258 182 182 141.258 182 91C182 40.7421 141.258 0 91 0C40.7421 0 0 40.7421 0 91C0 141.258 40.7421 182 91 182Z" fill="#F0F0F0"/>
<path d="M176.34 122.652C179.998 112.794 182 102.131 182 90.9999C182 79.8688 179.998 69.2061 176.34 59.3479H5.66013C2.00236 69.2061 0 79.8688 0 90.9999C0 102.131 2.00236 112.794 5.66013 122.652L91 130.565L176.34 122.652Z" fill="#0052B4"/>
<path d="M91 182C130.127 182 163.482 157.305 176.34 122.652H5.66016C18.5178 157.305 51.8732 182 91 182Z" fill="#D80027"/>
</svg>
